<?xml version="1.0" encoding="utf-8"?>
<!-- Generator: Adobe Illustrator 17.1.0, SVG Export Plug-In . SVG Version: 6.00 Build 0)  -->
<!DOCTYPE svg PUBLIC "-//W3C//DTD SVG 1.1//EN" "http://www.w3.org/Graphics/SVG/1.1/DTD/svg11.dtd">
<svg version="1.1" id="Layer_1" xmlns="http://www.w3.org/2000/svg" xmlns:xlink="http://www.w3.org/1999/xlink" x="0px" y="0px"
	 viewBox="0 0 108.854 69.185" enable-background="new 0 0 108.854 69.185" xml:space="preserve">
<path fill="none" stroke="#FFFFFF" stroke-width="2" stroke-linejoin="round" stroke-miterlimit="10" d="M2.642,68.194
	c0,0,3.789-0.505,6.315-8.968S19.709,21.657,23.798,1c2.779,20.714,9.157,53.174,15.093,59.363c0,0-4.675-6.966-12.17-11.239
	C20.072,45.333,7.568,43.438,1,47.859c7.326,6.82,17.935,4.673,24.124,0.632c4.119-2.69,7.882-5.905,11.241-10.104
	c3.031-3.789,8.21-14.02,8.084-22.103c-0.065-4.175-3.158,1.137-2.779,13.388c0.067,2.159-0.149,11.293,0.629,19.451
	c0.316,3.313,0.923,7.921,1.476,9.676c0.322,0.88,0.421,3.838,2.258,1.309c2.694-3.708,12.151-16.953,20.139-21.595
	c0.063,0.545-18.912,11.588-24.377,15.409c2.302,1.094,4.202,1.573,9.473,1.274c8.352-0.474,18.789-1.934,26.397-2.284
	c9.589-0.442,19.548,0.112,23.43,0.379c5.382,0.37,6.757,0.379,6.757,1.389"/>
</svg>
